<svg id="SvgjsSvg1001" width="288" height="288" xmlns="http://www.w3.org/2000/svg" version="1.1" xmlns:xlink="http://www.w3.org/1999/xlink" xmlns:svgjs="http://svgjs.com/svgjs"><defs id="SvgjsDefs1002"></defs><g id="SvgjsG1008" transform="matrix(1,0,0,1,0,0)"><svg xmlns="http://www.w3.org/2000/svg" width="288" height="288" fill="none" viewBox="0 0 252 252"><g filter="url(#filter0_d_5_4573)" fill="#6c757d" class="color000 svgShape"><path fill="#6c757d" d="M208.5 21H43.5C31.0781 21 21 31.0781 21 43.5V208.5C21 220.922 31.0781 231 43.5 231H208.5C220.922 231 231 220.922 231 208.5V43.5C231 31.0781 220.922 21 208.5 21ZM150.984 200.859C147.047 201.563 145.594 199.125 145.594 197.109C145.594 194.578 145.688 181.641 145.688 171.187C145.688 163.875 143.25 159.234 140.391 156.797C157.734 154.875 176.016 152.484 176.016 122.531C176.016 114 172.969 109.734 168 104.25C168.797 102.234 171.469 93.9375 167.203 83.1563C160.687 81.1406 145.781 91.5469 145.781 91.5469C139.594 89.8125 132.891 88.9219 126.281 88.9219C119.672 88.9219 112.969 89.8125 106.781 91.5469C106.781 91.5469 91.875 81.1406 85.3594 83.1563C81.0938 93.8906 83.7188 102.188 84.5625 104.25C79.5938 109.734 77.25 114 77.25 122.531C77.25 152.344 94.7344 154.875 112.078 156.797C109.828 158.813 107.812 162.281 107.109 167.25C102.656 169.266 91.2656 172.734 84.4687 160.734C80.2031 153.328 72.5156 152.719 72.5156 152.719C64.9219 152.625 72 157.5 72 157.5C77.0625 159.844 80.625 168.844 80.625 168.844C85.1719 182.766 106.922 178.078 106.922 178.078C106.922 184.594 107.016 195.188 107.016 197.109C107.016 199.125 105.609 201.563 101.625 200.859C70.6875 190.5 49.0312 161.062 49.0312 126.656C49.0312 83.625 81.9375 50.9531 124.969 50.9531C168 50.9531 202.875 83.625 202.875 126.656C202.922 161.062 181.922 190.547 150.984 200.859ZM105 172.219C104.109 172.406 103.266 172.031 103.172 171.422C103.078 170.719 103.688 170.109 104.578 169.922C105.469 169.828 106.312 170.203 106.406 170.813C106.547 171.422 105.937 172.031 105 172.219ZM100.547 171.797C100.547 172.406 99.8437 172.922 98.9062 172.922C97.875 173.016 97.1719 172.5 97.1719 171.797C97.1719 171.188 97.875 170.672 98.8125 170.672C99.7031 170.578 100.547 171.094 100.547 171.797ZM94.125 171.281C93.9375 171.891 93 172.172 92.2031 171.891C91.3125 171.703 90.7031 171 90.8906 170.391C91.0781 169.781 92.0156 169.5 92.8125 169.688C93.75 169.969 94.3594 170.672 94.125 171.281ZM88.3594 168.75C87.9375 169.266 87.0469 169.172 86.3437 168.469C85.6406 167.859 85.4531 166.969 85.9219 166.547C86.3437 166.031 87.2344 166.125 87.9375 166.828C88.5469 167.438 88.7812 168.375 88.3594 168.75ZM84.0938 164.484C83.6719 164.766 82.875 164.484 82.3594 163.781C81.8437 163.078 81.8437 162.281 82.3594 161.953C82.875 161.531 83.6719 161.859 84.0938 162.562C84.6094 163.266 84.6094 164.109 84.0938 164.484V164.484ZM81.0469 159.937C80.625 160.359 79.9219 160.125 79.4062 159.656C78.8906 159.047 78.7969 158.344 79.2187 158.016C79.6406 157.594 80.3437 157.828 80.8594 158.297C81.375 158.906 81.4688 159.609 81.0469 159.937ZM77.9063 156.469C77.7188 156.891 77.1094 156.984 76.5937 156.656C75.9844 156.375 75.7031 155.859 75.8906 155.437C76.0781 155.156 76.5938 155.016 77.2031 155.25C77.8125 155.578 78.0938 156.094 77.9063 156.469Z" class="color576B75 svgShape"></path></g><defs><filter id="filter0_d_5_4573" width="260" height="260" x="-4" y="0" color-interpolation-filters="sRGB" filterUnits="userSpaceOnUse"><feFlood flood-opacity="0" result="BackgroundImageFix"></feFlood><feColorMatrix in="SourceAlpha" result="hardAlpha" values="0 0 0 0 0 0 0 0 0 0 0 0 0 0 0 0 0 0 127 0"></feColorMatrix><feOffset dy="4"></feOffset><feGaussianBlur stdDeviation="2"></feGaussianBlur><feComposite in2="hardAlpha" operator="out"></feComposite><feColorMatrix values="0 0 0 0 0 0 0 0 0 0 0 0 0 0 0 0 0 0 0.25 0"></feColorMatrix><feBlend in2="BackgroundImageFix" result="effect1_dropShadow_5_4573"></feBlend><feBlend in="SourceGraphic" in2="effect1_dropShadow_5_4573" result="shape"></feBlend></filter></defs></svg></g></svg>