<svg id="SvgjsSvg1001" width="288" height="288" xmlns="http://www.w3.org/2000/svg" version="1.1" xmlns:xlink="http://www.w3.org/1999/xlink" xmlns:svgjs="http://svgjs.com/svgjs"><defs id="SvgjsDefs1002"></defs><g id="SvgjsG1008" transform="matrix(1,0,0,1,0,0)"><svg xmlns="http://www.w3.org/2000/svg" width="288" height="288" fill="none" viewBox="0 0 241 241"><path fill="#6c757d" d="M206.571 20.0833H34.3838C26.4939 20.0833 20.0833 26.5835 20.0833 34.5631V206.437C20.0833 214.416 26.4939 220.917 34.3838 220.917H206.571C214.461 220.917 220.917 214.416 220.917 206.437V34.5631C220.917 26.5835 214.461 20.0833 206.571 20.0833ZM80.7816 192.226H51.0153V96.3821H80.8265V192.226H80.7816ZM65.8984 83.292C56.3499 83.292 48.6393 75.5366 48.6393 66.0329C48.6393 56.5292 56.3499 48.7738 65.8984 48.7738C75.4022 48.7738 83.1576 56.5292 83.1576 66.0329C83.1576 75.5815 75.447 83.292 65.8984 83.292V83.292ZM192.361 192.226H162.594V145.604C162.594 134.487 162.37 120.186 147.128 120.186C131.618 120.186 129.242 132.29 129.242 144.797V192.226H99.4753V96.3821H128.031V109.472H128.435C132.424 101.941 142.152 94.0061 156.632 94.0061C186.757 94.0061 192.361 113.865 192.361 139.687V192.226V192.226Z" class="color576B75 svgShape"></path></svg></g></svg>